<svg width="32" height="32" viewBox="0 0 32 32" fill="none" xmlns="http://www.w3.org/2000/svg">
<path d="M21.3333 21.3333H29.3333M25.3333 17.3333V25.3333M28 13.3333V10.6667C27.9995 10.199 27.8761 9.73975 27.6421 9.33489C27.408 8.93002 27.0717 8.59382 26.6667 8.36L17.3333 3.02667C16.9279 2.79262 16.4681 2.6694 16 2.6694C15.5319 2.6694 15.0721 2.79262 14.6667 3.02667L5.33333 8.36C4.92835 8.59382 4.59197 8.93002 4.35795 9.33489C4.12392 9.73975 4.00048 10.199 4 10.6667V21.3333C4.00048 21.801 4.12392 22.2603 4.35795 22.6651C4.59197 23.07 4.92835 23.4062 5.33333 23.64L14.6667 28.9733C15.0721 29.2074 15.5319 29.3306 16 29.3306C16.4681 29.3306 16.9279 29.2074 17.3333 28.9733L20 27.4533M10 5.69334L22 12.56" stroke="#006E63" stroke-width="2" stroke-linecap="round" stroke-linejoin="round"/>
<path d="M4.38667 9.33333L16 16M16 16L27.6133 9.33333M16 16V29.3333" stroke="#006E63" stroke-width="2" stroke-linecap="round" stroke-linejoin="round"/>
</svg>
