<svg width="20" height="20" viewBox="0 0 20 20" fill="none" xmlns="http://www.w3.org/2000/svg">
<path d="M3.33337 18.3333H16.6667" stroke="#FFFFFF" stroke-width="1.5" stroke-linecap="round"/>
<path d="M11.5734 3.05246L12.1913 2.43454C13.2151 1.41074 14.8751 1.41074 15.8989 2.43454C16.9227 3.45834 16.9227 5.11825 15.8989 6.14206L15.2809 6.75998L9.60011 12.4408C9.21533 12.8256 9.02295 13.018 8.81082 13.1834C8.56059 13.3786 8.28984 13.5459 8.00336 13.6825C7.7605 13.7982 7.50239 13.8842 6.98616 14.0563L4.79865 14.7855L4.26393 14.9637C4.00989 15.0484 3.72981 14.9823 3.54046 14.7929C3.35111 14.6036 3.28499 14.3235 3.36967 14.0695L3.54791 13.5347L4.27708 11.3472C4.44916 10.831 4.5352 10.5729 4.65094 10.33C4.78746 10.0436 4.9548 9.77281 5.14997 9.52258C5.31543 9.31045 5.50782 9.11806 5.89259 8.73329L11.5734 3.05246Z" />
<path d="M11.5734 3.05246L12.1913 2.43454C13.2151 1.41074 14.8751 1.41074 15.8989 2.43454C16.9227 3.45834 16.9227 5.11825 15.8989 6.14206L15.2809 6.75998M11.5734 3.05246C11.5734 3.05246 11.6507 4.36554 12.8093 5.52414C13.9679 6.68274 15.2809 6.75998 15.2809 6.75998M11.5734 3.05246L5.89259 8.73329C5.50782 9.11806 5.31543 9.31045 5.14997 9.52258C4.9548 9.77281 4.78746 10.0436 4.65094 10.33C4.5352 10.5729 4.44916 10.831 4.27708 11.3472L3.54791 13.5347M15.2809 6.75998L9.60011 12.4408C9.21533 12.8256 9.02295 13.018 8.81082 13.1834C8.56059 13.3786 8.28984 13.5459 8.00336 13.6825C7.7605 13.7982 7.50239 13.8842 6.98616 14.0563L4.79865 14.7855M4.79865 14.7855L4.26393 14.9637C4.00989 15.0484 3.72981 14.9823 3.54046 14.7929C3.35111 14.6036 3.28499 14.3235 3.36967 14.0695L3.54791 13.5347M4.79865 14.7855L3.54791 13.5347" stroke="#FFFFFF" stroke-width="1.5"/>
</svg>
